<svg width="24" height="24" viewBox="0 0 192 192" xmlns="http://www.w3.org/2000/svg" stroke="white" fill="none">
  <g id="SVGRepo_bgCarrier" stroke-width="0"></g>
  <g id="SVGRepo_tracerCarrier" stroke-linecap="round" stroke-linejoin="round"></g>
  <g id="SVGRepo_iconCarrier">
    <path stroke-width="12" d="M34 102c0-8.837 7.163-16 16-16h92c8.837 0 16 7.163 16 16v52c0 8.837-7.163 16-16 16H50c-8.837 0-16-7.163-16-16v-52Zm0-48c0-8.837 7.163-16 16-16h92c8.837 0 16 7.163 16 16v16c0 8.837-7.163 16-16 16H50c-8.837 0-16-7.163-16-16V54Z"></path>
    <path stroke="white" stroke-linecap="round" stroke-width="12" d="M36 40 22 22m134 18 14-18"></path>
    <circle cx="66" cy="62" r="9.5" fill="white"></circle>
    <circle cx="66" cy="62" r="9.5" stroke="white"></circle>
    <circle cx="66" cy="62" r="9.5" stroke-opacity=".2"></circle>
    <circle cx="126" cy="62" r="9.5" fill="white"></circle>
    <circle cx="126" cy="62" r="9.5"></circle>
    <circle cx="126" cy="62" r="9.5" stroke-opacity=".2"></circle>
    <path stroke-linecap="round" stroke-width="12" d="M78.202 140.931a21.994 21.994 0 0 0 24.596 7.992 21.997 21.997 0 0 0 0-41.846 21.994 21.994 0 0 0-24.596 7.992"></path>
  </g>
</svg>
