<svg xmlns="http://www.w3.org/2000/svg" viewBox="0 0 704.73 292.56"><defs><style>.a{fill:#7152FF;}</style></defs><path class="a" d="M112,180.05,43.57,27.2A22.79,22.79,0,0,0,22.78,13.73h0A22.78,22.78,0,0,0,0,36.51V208.43a17.4,17.4,0,0,0,17.39,17.39h0a17.4,17.4,0,0,0,17.4-17.39V80.56L94.87,214.83a18.58,18.58,0,0,0,17,11h0a18.6,18.6,0,0,0,17-11L188.59,80.56V208.43A17.4,17.4,0,0,0,206,225.82h0a17.4,17.4,0,0,0,17.39-17.39V36.31A22.58,22.58,0,0,0,200.8,13.73h0a22.59,22.59,0,0,0-20.62,13.39Z"/><path class="a" d="M372,65.61q-19.53-10.68-43.64-10.68T284.71,65.61a78,78,0,0,0-30.82,30.52Q242.6,116,242.6,141.6q0,25.93,11,45.62a77.75,77.75,0,0,0,30.21,30.51q19.23,10.85,43,10.84a91,91,0,0,0,44.09-10.84,80.35,80.35,0,0,0,31.59-30.67q11.6-19.83,11.59-45.46T402.81,96.13A78,78,0,0,0,372,65.61Zm-.91,107.11A48.87,48.87,0,0,1,352,192a51.77,51.77,0,0,1-25.17,6.41q-21.06,0-34.94-14.8T278,141.6q0-18.32,6.71-31a45.77,45.77,0,0,1,18.16-19.07,50.09,50.09,0,0,1,24.87-6.41,51,51,0,0,1,25,6.41,47.38,47.38,0,0,1,18.61,19.07q7,12.67,7,31T371.08,172.72Z"/><rect class="a" x="433.32" width="34.79" height="225.82" rx="17.39"/><rect class="a" x="498.63" width="34.79" height="225.82" rx="17.39"/><path class="a" d="M673.07,73.89l-42.92,112L589.23,75a17.73,17.73,0,0,0-16.64-11.6h0a17.73,17.73,0,0,0-16.47,24.33l54.19,135.36-19.42,46.48a16.6,16.6,0,0,0,15.32,23h0a16.59,16.59,0,0,0,15.32-10.21l81.92-196.3a16.37,16.37,0,0,0-15.1-22.67h0A16.36,16.36,0,0,0,673.07,73.89Z"/></svg>