<svg xmlns="http://www.w3.org/2000/svg" xmlns:xlink="http://www.w3.org/1999/xlink" id="Lager_1" x="0px" y="0px" viewBox="0 0 850.4 437.3" style="enable-background:new 0 0 850.4 437.3;" xml:space="preserve"><style type="text/css">	.st0{fill:#F08D00;}</style><g>	<path class="st0" d="M260.7,0h40.5l-29.7,8.4C269,6,269.1,6.2,260.7,0"></path>	<polygon points="477.7,356.6 639.3,329.5 544.2,356.6  "></polygon>	<path d="M300.2,320.8l327.1-41.4L327.2,350l-36.9,6.6h-25.2C286.3,344,292.6,332.2,300.2,320.8"></path>	<path class="st0" d="M317.3,267.8l33.7-9.5l364.5-46.1l-300.2,70.7l-106.1,18.9C312.2,294.3,316.9,277.6,317.3,267.8"></path>	<path d="M280.3,17.7L342.9,0l168,0.4L410.7,23.6L297.5,43.7C294.4,35.7,283.5,20.8,280.3,17.7"></path>	<path class="st0" d="M303.9,60.1l276.3-35l-271.7,64C308.8,80.9,306,65.7,303.9,60.1"></path>	<path d="M306.9,112.2l118.6-33.6L790,32.5l-300.2,70.7l-191.5,34.1C302.1,131.3,306.4,117.6,306.9,112.2"></path>	<path class="st0" d="M278.5,170.5l75.9-21.4L719,103l-300.1,70.6l-117,20.8C297.7,188.4,290.7,178.7,278.5,170.5"></path>	<path d="M314.4,222.7l192.9-24.4l-189.7,44.6C316.9,235.3,316.4,230.3,314.4,222.7"></path>	<path d="M0.1,356.6V0h181.4c37.7,0,65.2,9.4,82.4,28.3c17.3,19,25.9,40.6,25.9,64.8c0,17.7-5,33.7-15,48s-24.9,24.2-44.8,29.6  c46.1,11.2,69.2,38.9,69.2,83.3c0,26.6-8.2,50.3-24.5,71.2s-51.2,31.3-104.6,31.3H0.1V356.6z M101,135.9h51.2  c12.8,0,21.9-3.1,27.2-9.5c5.3-6.3,7.9-13.1,7.9-20.3c0-19.5-12.3-29.2-37-29.2H101V135.9z M101,277h53.7c13.3,0,23.1-3.3,29.3-9.8  s9.3-13.9,9.3-22.2c0-8.2-3-15.8-9.1-22.7S167.1,212,150.9,212h-50v65"></path>	<polygon class="st0" points="568.6,0 638.9,0 620.7,5.3 439.7,30.8  "></polygon>	<polygon class="st0" points="523.4,205.8 684.6,178.7 551.8,216.6 370.9,242.1  "></polygon>	<polygon points="522.5,163.1 683.8,136.1 551,174 370,199.5  "></polygon>	<polygon class="st0" points="645.9,82.5 807.1,55.4 674.3,93.3 493.4,118.9  "></polygon>	<polygon class="st0" points="654.1,20.4 775.8,0 792.1,0 682.6,31.3 501.7,56.8  "></polygon>	<polygon points="604.2,253.2 765.5,226.2 632.7,264.1 451.7,289.6  "></polygon>	<polygon class="st0" points="520.9,319.9 682.2,292.9 549.4,330.8 368.5,356.3  "></polygon>	<path d="M48,436H-0.1v-62.6h44.9c9.8,0,17,0.8,21.7,2.5c7.1,2.6,10.6,7.5,10.6,14.7c0,5.9-4.3,10.6-12.9,14.1  c8.8,3,13.2,7.5,13.2,13.7c0,6.7-2.8,11.4-8.5,14.2C64.4,434.9,57.4,436,48,436 M45.1,384.6H18.3v14.5h26.8  c8.1,0,12.2-2.4,12.2-7.2C57.3,387.1,53.2,384.6,45.1,384.6 M18.3,410.2V425h27.1c8.2,0,12.2-2.5,12.2-7.3c0-5-4-7.5-12.2-7.5H18.3  "></path>	<path d="M103.8,436H84.3l36.9-62.6h19.5l37.5,62.6h-20.5l-8.1-15h-38.1L103.8,436z M117.4,410h26.2l-13.3-24L117.4,410"></path>	<polygon points="192.6,436 192.6,373.4 211,373.4 211,398.7 244.8,398.7 244.8,373.4 263.1,373.4 263.1,436 244.8,436 244.8,409.8   211,409.8 211,436  "></polygon>	<polygon points="300.5,436 281.6,436 281.6,373.4 305.1,373.4 340.8,418.5 340,373.4 358.5,373.4 358.5,436 337.4,436 299.7,388.7    "></polygon>	<polygon points="378.1,436 378.1,373.4 396.5,373.4 396.5,398.7 430.3,398.7 430.3,373.4 448.6,373.4 448.6,436 430.3,436   430.3,409.8 396.5,409.8 396.5,436  "></polygon>	<path d="M505.1,372.1c13.5,0,23.8,2.1,30.8,6.3c8.9,5.3,13.3,14,13.3,26.3c0,21.8-14.7,32.6-43.9,32.6c-15,0-26.1-2.7-33.2-8.1  c-7.1-5.5-10.7-13.7-10.7-24.7C461.4,382.9,476,372.1,505.1,372.1 M481.5,404.5c0,14.7,7.9,22.1,23.8,22.1  c15.9,0,23.8-7.3,23.8-21.8c0-14.6-7.9-21.9-23.8-21.9c-7.9,0-14,1.9-18,5.8C483.4,392.4,481.5,397.7,481.5,404.5"></path>	<path d="M585.3,436h-18.7v-28.7c0-9.9,1.7-17.4,5.1-22.5c3-4.6,7.9-7.8,14.6-9.4c5.1-1.3,13-1.9,23.6-1.9h28v10.9h-29.8  c-7.6,0-13,1.1-16.4,3.2c-3.7,2.3-5.9,6.3-6.3,12H638v10.7h-52.6L585.3,436"></path>	<polygon class="st0" points="689,152.4 850.3,125.4 717.5,163.3 536.5,188.8  "></polygon></g></svg>