<?xml version="1.0" encoding="utf-8"?>
<!-- Generator: Adobe Illustrator 24.3.0, SVG Export Plug-In . SVG Version: 6.00 Build 0)  -->
<svg version="1.1" id="Capa_1" xmlns="http://www.w3.org/2000/svg" xmlns:xlink="http://www.w3.org/1999/xlink" x="0px" y="0px"
	 viewBox="0 0 452.4 452.4" style="enable-background:new 0 0 452.4 452.4;" xml:space="preserve">
<style type="text/css">
	.st0{fill:url(#SVGID_1_);}
	.st1{fill:url(#SVGID_2_);}
	.st2{fill:url(#SVGID_3_);}
</style>
<linearGradient id="SVGID_1_" gradientUnits="userSpaceOnUse" x1="355.3862" y1="1060.4053" x2="46.3704" y2="525.1729" gradientTransform="matrix(1 0 0 1 0 -552)">
	<stop  offset="0.13" style="stop-color:#553BFF"/>
	<stop  offset="0.86" style="stop-color:#9064FF"/>
</linearGradient>
<path class="st0" d="M231.7,0c-43-1.1-85.4,10.2-122.3,32.3s-66.5,54.4-85.8,92.9c-19.2,38.5-27,81.6-22.5,124.4
	C5.7,292.4,22.2,333,49,366.7L40.9,381l-19.8,34.7c-2.1,3.8-3.3,8-3.3,12.3c0,4.3,1.2,8.6,3.3,12.2c2.1,3.8,5.3,6.8,9,9
	c3.8,2.1,8,3.3,12.2,3.3h182c125.8,0,229.5-103,228-228.8c-0.7-58.6-24.1-114.6-65.3-156.3C346,25.6,290.2,1.4,231.7,0z"/>
<linearGradient id="SVGID_2_" gradientUnits="userSpaceOnUse" x1="226.1725" y1="188.84" x2="226.1725" y2="112.71" gradientTransform="matrix(1 0 0 -1 0 454)">
	<stop  offset="0" style="stop-color:#E2DEFF"/>
	<stop  offset="1" style="stop-color:#FFFFFF"/>
</linearGradient>
<path class="st1" d="M321,265.2c-7.9,0-14.3,6.4-14.4,14.4v23.7c0,5.2-4.2,9.3-9.4,9.4H155.1c-5.2,0-9.3-4.2-9.4-9.4v-23.7
	c0.2-7.9-6-14.5-14-14.7c-7.9-0.2-14.5,6-14.7,14c0,0.3,0,0.5,0,0.8v23.7c0,21,17,38,38.1,38.1h142.2c21,0,38-17.1,38.1-38.1v-23.7
	C335.4,271.6,328.9,265.2,321,265.2z"/>
<linearGradient id="SVGID_3_" gradientUnits="userSpaceOnUse" x1="226.155" y1="342.93" x2="226.155" y2="171.98" gradientTransform="matrix(1 0 0 -1 0 454)">
	<stop  offset="0" style="stop-color:#E2DEFF"/>
	<stop  offset="1" style="stop-color:#FFFFFF"/>
</linearGradient>
<path class="st2" d="M216,277.8c0.7,0.7,1.4,1.3,2.2,1.8c0.2,0.1,0.5,0.3,0.7,0.4l0.2,0.1l0.2,0.1c0.5,0.3,1,0.5,1.5,0.8
	c0.3,0.1,0.7,0.2,1.1,0.3l0.6,0.2c0.3,0.1,0.7,0.2,1.1,0.3c1.9,0.4,3.8,0.4,5.6,0c0.4-0.1,0.8-0.2,1.1-0.3l0.6-0.2
	c0.3-0.1,0.7-0.2,1-0.4c0.5-0.2,1-0.5,1.5-0.8l0.3-0.2c0.2-0.1,0.5-0.2,0.7-0.4c0.8-0.5,1.6-1.1,2.2-1.8l59.2-59.2
	c5.6-5.6,5.6-14.7,0-20.3c-5.6-5.6-14.7-5.6-20.3,0L240.5,233V125.4c-0.2-7.9-6.8-14.2-14.7-14c-7.6,0.2-13.8,6.3-14,14V233
	l-34.8-34.8c-5.6-5.6-14.7-5.6-20.3,0s-5.6,14.7,0,20.3l0,0L216,277.8z"/>
</svg>
