<svg width="470" height="470" viewBox="0 0 470 470" fill="none" xmlns="http://www.w3.org/2000/svg">
<path d="M240.83 0.0761492C196.162 -1.06621 152.118 10.6689 113.788 33.6199C75.4569 56.5709 44.7092 90.1146 24.6608 130.097C4.71637 170.08 -3.38607 214.839 1.28841 259.287C6.06677 303.735 23.2065 345.899 51.0457 380.896L42.6316 395.747L22.0639 431.783C19.8825 435.729 18.6359 440.091 18.6359 444.557C18.6359 449.022 19.8825 453.488 22.0639 457.226C24.2453 461.173 27.5694 464.288 31.4129 466.573C35.3602 468.754 39.7231 470 44.0859 470H233.143C363.821 470 471.541 363.034 469.983 232.39C469.256 171.533 444.949 113.377 402.151 70.0714C359.562 26.6619 301.598 1.53006 240.83 0.0761492Z" fill="url(#paint0_linear_496_2315)"/>
<path d="M240.83 0.0761492C196.162 -1.06621 152.118 10.6689 113.788 33.6199C75.4569 56.5709 44.7092 90.1146 24.6608 130.097C4.71637 170.08 -3.38607 214.839 1.28841 259.287C6.06677 303.735 23.2065 345.899 51.0457 380.896L42.6316 395.747L22.0639 431.783C19.8825 435.729 18.6359 440.091 18.6359 444.557C18.6359 449.022 19.8825 453.488 22.0639 457.226C24.2453 461.173 27.5694 464.288 31.4129 466.573C35.3602 468.754 39.7231 470 44.0859 470H233.143C363.821 470 471.541 363.034 469.983 232.39C469.256 171.533 444.949 113.377 402.151 70.0714C359.562 26.6619 301.598 1.53006 240.83 0.0761492Z" fill="url(#paint1_linear_496_2315)"/>
<path fill-rule="evenodd" clip-rule="evenodd" d="M226.808 290.451C225.977 289.932 225.25 289.309 224.523 288.582L162.923 226.998C157.106 221.183 157.106 211.732 162.923 205.917C168.741 200.101 178.193 200.101 184.011 205.917L220.16 242.057V130.313C220.368 122.317 226.808 115.982 234.703 115.774C242.909 115.567 249.765 122.109 249.973 130.313V242.057L286.33 205.917C292.147 200.101 301.6 200.101 307.417 205.917C313.234 211.732 313.234 221.183 307.417 226.998L245.921 288.478C245.298 289.205 244.467 289.828 243.636 290.347C243.477 290.506 243.258 290.604 243.071 290.688C243.013 290.713 242.958 290.738 242.909 290.763L242.597 290.97C242.078 291.282 241.559 291.593 241.039 291.801C240.788 291.969 240.468 292.069 240.191 292.156C240.124 292.176 240.06 292.196 240 292.216L239.377 292.424C239.066 292.528 238.651 292.632 238.235 292.736L238.235 292.736C236.365 293.151 234.391 293.151 232.417 292.736L232.417 292.736C232.001 292.632 231.586 292.528 231.275 292.424L230.651 292.216L230.651 292.216C230.236 292.112 229.82 292.009 229.509 291.905C229.249 291.749 228.989 291.619 228.73 291.489C228.47 291.36 228.21 291.23 227.951 291.074L227.743 290.97L227.535 290.866C227.431 290.814 227.301 290.737 227.172 290.659C227.042 290.581 226.912 290.503 226.808 290.451ZM318.635 290.448C318.739 282.14 325.387 275.494 333.594 275.494C341.8 275.494 348.552 282.14 348.552 290.552V315.165C348.448 336.974 330.789 354.732 308.975 354.732H161.261C139.343 354.628 121.684 336.974 121.684 315.165V290.552V289.721C121.891 281.413 128.747 274.975 136.954 275.182C145.264 275.39 151.704 282.244 151.496 290.448V315.061C151.6 320.461 155.859 324.823 161.261 324.823H308.871C314.272 324.719 318.635 320.461 318.635 315.061V290.448Z" fill="url(#paint2_linear_496_2315)"/>
<path fill-rule="evenodd" clip-rule="evenodd" d="M226.808 290.451C225.977 289.932 225.25 289.309 224.523 288.582L162.923 226.998C157.106 221.183 157.106 211.732 162.923 205.917C168.741 200.101 178.193 200.101 184.011 205.917L220.16 242.057V130.313C220.368 122.317 226.808 115.982 234.703 115.774C242.909 115.567 249.765 122.109 249.973 130.313V242.057L286.33 205.917C292.147 200.101 301.6 200.101 307.417 205.917C313.234 211.732 313.234 221.183 307.417 226.998L245.921 288.478C245.298 289.205 244.467 289.828 243.636 290.347C243.477 290.506 243.258 290.604 243.071 290.688C243.013 290.713 242.958 290.738 242.909 290.763L242.597 290.97C242.078 291.282 241.559 291.593 241.039 291.801C240.788 291.969 240.468 292.069 240.191 292.156C240.124 292.176 240.06 292.196 240 292.216L239.377 292.424C239.066 292.528 238.651 292.632 238.235 292.736L238.235 292.736C236.365 293.151 234.391 293.151 232.417 292.736L232.417 292.736C232.001 292.632 231.586 292.528 231.275 292.424L230.651 292.216L230.651 292.216C230.236 292.112 229.82 292.009 229.509 291.905C229.249 291.749 228.989 291.619 228.73 291.489C228.47 291.36 228.21 291.23 227.951 291.074L227.743 290.97L227.535 290.866C227.431 290.814 227.301 290.737 227.172 290.659C227.042 290.581 226.912 290.503 226.808 290.451ZM318.635 290.448C318.739 282.14 325.387 275.494 333.594 275.494C341.8 275.494 348.552 282.14 348.552 290.552V315.165C348.448 336.974 330.789 354.732 308.975 354.732H161.261C139.343 354.628 121.684 336.974 121.684 315.165V290.552V289.721C121.891 281.413 128.747 274.975 136.954 275.182C145.264 275.39 151.704 282.244 151.496 290.448V315.061C151.6 320.461 155.859 324.823 161.261 324.823H308.871C314.272 324.719 318.635 320.461 318.635 315.061V290.448Z" fill="url(#paint3_linear_496_2315)"/>
<defs>
<linearGradient id="paint0_linear_496_2315" x1="369.312" y1="528.058" x2="48.4385" y2="-27.8558" gradientUnits="userSpaceOnUse">
<stop offset="0.13" stop-color="#553BFF"/>
<stop offset="0.86" stop-color="#9064FF"/>
</linearGradient>
<linearGradient id="paint1_linear_496_2315" x1="234.991" y1="470" x2="234.991" y2="-0.00549084" gradientUnits="userSpaceOnUse">
<stop stop-color="#E1D6FF"/>
<stop offset="1" stop-color="white"/>
</linearGradient>
<linearGradient id="paint2_linear_496_2315" x1="235.071" y1="115.432" x2="235.071" y2="292.964" gradientUnits="userSpaceOnUse">
<stop stop-color="#E2DEFF"/>
<stop offset="1" stop-color="white"/>
</linearGradient>
<linearGradient id="paint3_linear_496_2315" x1="299.95" y1="384.25" x2="132.686" y2="109.132" gradientUnits="userSpaceOnUse">
<stop offset="0.13" stop-color="#553BFF"/>
<stop offset="0.86" stop-color="#9064FF"/>
</linearGradient>
</defs>
</svg>
